# xmcd
#
# Track frame offsets:
#	150
#	16130
#	30015
#	43087
#	48242
#	62972
#	76669
#	89112
#	104604
#	118404
#	132882
#	148315
#	161205
#	176632
#	186220
#	195777
#	211857
#	228372
#	244630
#	262017
#	270270
#	275883
#
# Disc length: 3713 seconds
#
# Revision: 0
# Processed by: cddbd v1.5.2PL0 Copyright (c) Steve Scherf et al.
# Submitted via: dBpowerAMP V4.0
#
DISCID=3b0e7f16
DTITLE=Muddy Waters - the complete plantation recordings
DYEAR=1900
DGENRE=
TTITLE0=Country Blues
TTITLE1=I Be's Troubled
TTITLE2=Burr Clover Farm Blues
TTITLE3=Ramblin' Kid Blues
TTITLE4=Ramblin' Kid Blues
TTITLE5=Rosalie
TTITLE6=Joe Turner
TTITLE7=Pearlie May Blues
TTITLE8=Take a walk with me
TTITLE9=Burr Clover Blues
TTITLE10=I be bound to write to you
TTITLE11=I be bound to write to you
TTITLE12=You're gonna miss me when i'm gone
TTITLE13=You got to take sick and
TTITLE14=Why don't you live so god
TTITLE15=Country Blues
TTITLE16=You're gonna miss me when I'm gone
TTITLE17=32-20 Blues
TTITLE18=Interview 1
TTITLE19=Interview 2
TTITLE20=Interview 3
TTITLE21=Interview 4
EXTD=
EXTT0=
EXTT1=
EXTT2=
EXTT3=
EXTT4=
EXTT5=
EXTT6=
EXTT7=
EXTT8=
EXTT9=
EXTT10=
EXTT11=
EXTT12=
EXTT13=
EXTT14=
EXTT15=
EXTT16=
EXTT17=
EXTT18=
EXTT19=
EXTT20=
EXTT21=
PLAYORDER=
